<svg xmlns="http://www.w3.org/2000/svg" width="53.7402" height="54.04336" viewBox="0 0 53.7402 54.04336" creator="Katerina Limpitsouni"><path d="M1.16449,29.82008c16.90375,5.08891,35.21181,4.90453,52.00764-.53181l-.92259-.92259c-1.37356,3.33569-2.1855,6.87196-2.75846,10.42569-.3114,1.93144-.55754,3.87269-.81175,5.81226-.13903,1.06077-.28012,2.12126-.43397,3.18-.03115,.21438-.11175,.47844-.10242,.69426-.00318-.0736-.04023,.91593,.15733,.51952-.06599,.1324-.41839,.30466-.54165,.38457-.67101,.435-1.47506,.56192-2.25202,.76173-1.05551,.27145-2.11674,.52017-3.1829,.7462-2.21872,.47038-4.45847,.84545-6.71076,1.113-4.32934,.51429-8.7014,.66439-13.05585,.44938-4.99347-.24656-9.94052-.99401-14.79164-2.19887l.55062,.72321c-.32964-3.57059-1.36335-7.16859-2.41398-10.58628-1.21172-3.94172-2.73501-7.77946-4.51828-11.49679l-.44822,1.10175,.62767-.17525c.92842-.25921,.53404-1.70686-.39876-1.44642l-.62767,.17525c-.49617,.13853-.65554,.66958-.44822,1.10175,1.72786,3.6018,3.19309,7.31952,4.36707,11.13847,1.0085,3.28066,2.04394,6.75977,2.3604,10.18752,.03006,.32562,.2112,.63891,.55062,.72321,8.91217,2.21349,18.18377,2.88167,27.31797,1.90769,2.23381-.23819,4.45874-.56737,6.66453-.99313,1.07009-.20655,2.13566-.4358,3.19597-.68778,1.11382-.2647,2.4383-.4408,3.4781-.9256,.33946-.15827,.68992-.4321,.97819-.66872,.58833-.48291,.55002-1.19282,.65688-1.91954,.32578-2.21554,.59213-4.4391,.89868-6.65726,.6109-4.42031,1.43268-8.8474,3.13895-12.99107,.21901-.53186-.42041-1.08513-.92259-.92259-16.55741,5.35917-34.54526,5.5488-51.21012,.53181-.92634-.27888-1.32221,1.16841-.39876,1.44642Z" fill="#01010C" origin="undraw"/><path d="M45.63121,24.61468c.38705,.37338,.76756,.76549,1.08051,1.20326,.30031,.42009,.54265,.84305,.68217,1.2906,.03338,.10708,.06258,.21556,.08721,.32498,.01513,.06718,.0281,.13479,.03966,.20267,.02258,.13265-.00711-.08974,.00567,.04219,.01148,.11846,.0177,.23736,.01626,.35641-.00063,.05178-.00476,.10338-.00591,.15511-.00099,.04437-.00819,.11208,.0024,.02839-.014,.11068-.04109,.22118-.07295,.32801-.01405,.0471-.02959,.09355-.04664,.13965-.02588,.06998,.03805-.05466-.02763,.05474-.14105,.23497-.13648,.24376-.3395,.42511-.30222,.26996-.27506,.7856,0,1.06066,.30032,.30032,.75768,.27064,1.06066,0,.94242-.84183,1.08579-2.18912,.77432-3.35422-.34897-1.30538-1.2409-2.39724-2.19558-3.31821-.69498-.67045-1.75701,.3889-1.06066,1.06066h0Z" fill="#01010C"/><path d="M6.38912,29.79882c-.11487-.94101,.06477-1.81774,.46057-2.66873,.45514-.97859,1.09772-1.84444,1.84534-2.6181,.67108-.69445-.38832-1.75642-1.06066-1.06066-1.59323,1.64872-3.03732,3.95492-2.74525,6.34749,.04907,.402,.30958,.75,.75,.75,.36722,0,.79942-.34519,.75-.75h0Z" fill="#01010C"/><path d="M34.85211,11.99647c2.02125-.37844,4.16197-.87301,5.52069-2.55017,1.10319-1.36173,1.21811-3.15101,.4407-4.70212C38.91742,.96109,33.31449,.4512,29.61231,.11299c-4.27633-.39066-8.74727,.18069-12.43146,2.51729-1.59144,1.00932-2.98966,2.31186-4.03565,3.88423-.55801,.83882-1.45257,1.0929-2.3088,1.58879-.84116,.48716-1.64446,1.04231-2.39131,1.66497-2.89403,2.41282-4.77714,6.27894-3.71899,10.06799,1.07879,3.86297,4.92762,5.41578,8.51302,6.14262,4.76527,.96603,9.6663,1.43626,14.52351,1.54279,4.90158,.1075,10.01118-.03231,14.83709-.97182,1.94961-.37955,3.97122-1.27513,4.91853-3.134,.89226-1.75085,.3481-3.74707-.83507-5.2114-1.51485-1.87482-3.81106-2.61588-5.97992-3.45484-1.74545-.67518-4.96269-1.5449-5.32732-3.67574-.16249-.94955-1.60825-.54695-1.44642,.39876,.47997,2.80481,4.0847,3.84176,6.37498,4.7234,1.79889,.69247,3.76498,1.28958,5.08028,2.78512,1.25555,1.42759,1.51684,3.3976,.01001,4.75027-1.49866,1.34534-3.75231,1.49912-5.6587,1.72291-2.06526,.24244-4.13915,.40985-6.21653,.50239-4.1548,.18508-8.32259,.07063-12.46096-.34231-3.6459-.3638-7.80697-.64975-11.18373-2.2036-3.46306-1.59357-4.76618-5.14724-3.3632-8.68278,.68183-1.71822,1.98901-3.16235,3.45194-4.26136,.62321-.46818,1.28823-.88388,1.97027-1.26041,.63216-.349,1.54994-.58605,2.01784-1.13037,.52127-.6064,.85739-1.37306,1.40493-1.98277,.5843-.65064,1.2433-1.23722,1.95394-1.74616,1.39038-.99575,2.96002-1.7211,4.60406-2.18358,4.34109-1.22118,9.23437-.70687,13.52559,.4983,1.95675,.54954,4.4761,1.85083,4.39538,4.24326-.08851,2.62328-3.36361,3.26717-5.38226,3.64512-.94763,.17743-.5463,1.62336,.39876,1.44642h0Z" fill="#01010C"/><path d="M24.32041,9.68161c.96518,0,.96678-1.5,0-1.5-.96518,0-.96678,1.5,0,1.5h0Z" fill="#01010C"/><path d="M16.67197,17.33005c.96518,0,.96678-1.5,0-1.5-.96518,0-.96678,1.5,0,1.5h0Z" fill="#01010C"/><path d="M28.97599,17.66259c.96518,0,.96678-1.5,0-1.5-.96518,0-.96678,1.5,0,1.5h0Z" fill="#01010C"/></svg>